<?xml version="1.0" ?><!DOCTYPE svg  PUBLIC '-//W3C//DTD SVG 1.1//EN'  'http://www.w3.org/Graphics/SVG/1.1/DTD/svg11.dtd'><svg height="80px" style="enable-background:new 0 0 79 80;" version="1.1" viewBox="0 0 79 80" width="79px" xml:space="preserve" xmlns="http://www.w3.org/2000/svg" xmlns:xlink="http://www.w3.org/1999/xlink"><defs/><path d="M33.5,51.8c0,0-0.1,0.2-0.2,0.5c-0.2,0.9,0.4,1.7,0.1,2.5c-0.3,0.8-1.3,1.2-2.1,0.9c-0.8-0.3-1.2-1.3-0.9-2.1  c0.6-1.1,1.6-0.9,2.1-2.2l3.2-7.6L20.8,58.5c0,0-0.3,0.3-0.6,0.8c-1,1.5-0.5,3.5-1.8,4.7c-1.3,1.3-3.4,1.3-4.6,0  c-1.3-1.3-1.3-3.3,0-4.6c0,0,0.1-0.1,0.2-0.2c1.8-1.4,3.5-0.3,5.3-2.2l14.8-14.8l-7.6,3.2c0,0-0.2,0.1-0.4,0.2  c-0.7,0.5-0.9,1.5-1.7,1.8c-0.8,0.3-1.8,0-2.1-0.9c-0.3-0.8,0.1-1.8,0.9-2.1c1.3-0.3,1.8,0.5,3-0.1l7.6-3.2H12.7c0,0-0.4,0-1,0.1  c-1.7,0.3-2.8,2.1-4.6,2.1c-1.8,0-3.3-1.5-3.3-3.3c0-1.8,1.5-3.3,3.3-3.3c0,0,0.1,0,0.3,0C9.7,37,10,39,12.7,38.9h20.9L26,35.7  c0,0-0.2-0.1-0.5-0.2c-0.9-0.2-1.7,0.4-2.5,0.1c-0.8-0.3-1.2-1.3-0.9-2.1c0.3-0.8,1.3-1.2,2.1-0.9c1.1,0.6,0.9,1.6,2.2,2.1l7.6,3.2  L19.3,23c0,0-0.3-0.3-0.8-0.6c-1.5-1-3.5-0.5-4.7-1.8c-1.3-1.3-1.3-3.4,0-4.6c1.3-1.3,3.3-1.3,4.6,0c0,0,0.1,0.1,0.2,0.2  c1.4,1.8,0.3,3.5,2.2,5.3l14.8,14.8l-3.2-7.6c0,0-0.1-0.2-0.2-0.4c-0.5-0.7-1.5-0.9-1.8-1.7c-0.3-0.8,0-1.8,0.9-2.1  c0.8-0.3,1.8,0.1,2.1,0.9c0.3,1.3-0.5,1.8,0.1,3l3.2,7.6V14.9c0,0,0-0.4-0.1-1c-0.3-1.7-2.1-2.8-2.1-4.6C34.5,7.5,36,6,37.8,6  c1.8,0,3.3,1.5,3.3,3.3c0,0,0,0.1,0,0.3c-0.3,2.3-2.2,2.6-2.1,5.3v20.9l3.2-7.6c0,0,0.1-0.2,0.2-0.5c0.2-0.9-0.4-1.7-0.1-2.5  c0.3-0.8,1.3-1.2,2.1-0.9c0.8,0.3,1.2,1.3,0.9,2.1c-0.6,1.1-1.6,0.9-2.1,2.2L40,36.3l14.8-14.8c0,0,0.3-0.3,0.6-0.8  c1-1.5,0.5-3.5,1.8-4.7c1.3-1.3,3.4-1.3,4.6,0c1.3,1.3,1.3,3.3,0,4.6c0,0-0.1,0.1-0.2,0.2c-1.8,1.4-3.5,0.3-5.3,2.2L41.5,37.8  l7.6-3.2c0,0,0.2-0.1,0.4-0.2c0.7-0.5,0.9-1.5,1.7-1.8c0.8-0.3,1.8,0,2.1,0.9c0.3,0.8,0,1.8-0.9,2.1c-1.3,0.3-1.8-0.5-3,0.1L42,38.9  h20.9c0,0,0.4,0,1-0.1c1.7-0.3,2.8-2.1,4.6-2.1c1.8,0,3.3,1.5,3.3,3.3c0,1.8-1.5,3.3-3.3,3.3c0,0-0.1,0-0.3,0  C66,43,65.6,41,62.9,41.1H42l7.6,3.2c0,0,0.2,0.1,0.5,0.2c0.9,0.2,1.7-0.4,2.5-0.1c0.8,0.3,1.2,1.3,0.9,2.1  c-0.3,0.8-1.3,1.2-2.1,0.9c-1.1-0.6-0.9-1.6-2.2-2.1l-7.6-3.2L56.3,57c0,0,0.3,0.3,0.8,0.6c1.5,1,3.5,0.5,4.7,1.8  c1.3,1.3,1.3,3.4,0,4.6c-1.3,1.3-3.3,1.3-4.6,0c0,0-0.1-0.1-0.2-0.2c-1.4-1.8-0.3-3.5-2.2-5.3L40,43.7l3.2,7.6c0,0,0.1,0.2,0.2,0.4  c0.5,0.7,1.5,0.9,1.8,1.7c0.3,0.8,0,1.8-0.9,2.1c-0.8,0.3-1.8-0.1-2.1-0.9c-0.3-1.3,0.5-1.8-0.1-3l-3.2-7.6v20.9c0,0,0,0.4,0.1,1  c0.3,1.7,2.1,2.8,2.1,4.6c0,1.8-1.5,3.3-3.3,3.3c-1.8,0-3.3-1.5-3.3-3.3c0,0,0-0.1,0-0.3c0.3-2.3,2.2-2.6,2.1-5.3V44.2L33.5,51.8  L33.5,51.8z"/><rect height="80" id="_x3C_Slice_x3E__30_" style="fill:none;" width="79"/></svg>